<?xml version="1.0" encoding="utf-8"?><!--Generator: Adobe Illustrator 21.0.0, SVG Export Plug-In . SVG Version: 6.00 Build 0)--><svg version="1.1" id="圖層_1" xmlns="http://www.w3.org/2000/svg" xmlns:xlink="http://www.w3.org/1999/xlink" x="0px" y="0px" viewBox="0 0 100 100" style="enable-background:new 0 0 100 100;" xml:space="preserve"><style type="text/css">.st0{fill:#D1D1D1;} .st1{fill:#454545;} .st2{fill:#464646;} .st3{fill:#474747;} .st4{fill:#494949;} .st5{fill:#D1D2D1;}</style><path class="st0" d="M20.461,92.5c-1.96,0-3.549-1.589-3.549-3.549V47.329c-1.601-0.839-2.968-2.08-3.978-3.641 c-1.546-2.387-2.069-5.233-1.475-8.014c0.044-0.207,0.107-0.41,0.188-0.606c0.015-0.037,1.807-4.517,1.381-8.466 c-0.35-3.247,0.71-6.431,2.985-8.965c2.507-2.792,6.259-4.459,10.037-4.459c0.078,0,0.155,0.001,0.234,0.002 c2.449-2.7,5.918-4.261,9.645-4.261c1.327,0,2.649,0.205,3.91,0.601c2.072-1.314,4.481-2.02,6.973-2.02 c4.025,0,7.804,1.89,10.249,4.982c0.455-0.048,0.914-0.072,1.374-0.072c7.192,0,13.043,5.851,13.043,13.043 c0,2.484-0.717,4.921-2.04,7.003v1.93h4.259c8.317,0,15.084,6.401,15.084,14.269v19.793c0,7.868-6.766,14.269-15.084,14.269h-4.259 v6.234c0,1.96-1.59,3.549-3.549,3.549H20.461z"/><path class="st1" d="M73.695,37.934h-7.808v-6.478h-0.1c1.338-1.636,2.14-3.726,2.14-6.004c0-5.243-4.251-9.494-9.494-9.494 c-1.067,0-2.092,0.179-3.05,0.503c-1.526-3.201-4.791-5.413-8.573-5.413c-2.487,0-4.75,0.958-6.442,2.522 c-1.326-0.703-2.836-1.103-4.441-1.103c-3.385,0-6.354,1.773-8.035,4.439c-0.597-0.117-1.212-0.18-1.843-0.18 c-5.243,0-10.056,4.281-9.494,9.494c0.532,4.939-1.627,10.195-1.627,10.195c-0.82,3.834,1.623,7.606,5.456,8.426l0.075,0.016v44.093 h45.428v-9.783h7.808c6.36,0,11.534-4.809,11.534-10.72V48.655C85.23,42.743,80.056,37.934,73.695,37.934z M33.027,75.65 c0,1.843-1.495,3.339-3.339,3.339c-1.844,0-3.339-1.496-3.339-3.339V41.405c0-1.844,1.495-3.339,3.339-3.339 s3.339,1.495,3.339,3.339V75.65z M46.513,75.65c0,1.843-1.495,3.339-3.339,3.339s-3.339-1.496-3.339-3.339V41.405 c0-1.844,1.495-3.339,3.339-3.339c1.844,0,3.339,1.495,3.339,3.339L46.513,75.65z M59.644,75.65c0,1.843-1.496,3.339-3.339,3.339 s-3.339-1.496-3.339-3.339V41.405c0-1.844,1.496-3.339,3.339-3.339s3.339,1.495,3.339,3.339V75.65z M61.671,29.612 c-0.257,0.316-0.397,0.711-0.397,1.119v1.08H33.965c-0.054-0.002-0.131-0.005-0.231-0.005c-1.068,0-3.917,0.264-7.303,2.707 c-1.475,1.064-2.143,2.389-2.68,3.453c-0.695,1.378-0.861,1.638-1.984,1.638c-0.087,0-0.177-0.002-0.27-0.007 c-0.855-0.299-2.456-3.037-2.303-3.953c0.04-0.102,0.303-0.453,0.495-0.709c0.979-1.307,2.617-3.494,2.159-7.744 c-0.079-0.73,0.179-1.432,0.766-2.085c0.851-0.948,2.136-1.514,3.435-1.514c0.27,0,0.545,0.027,0.816,0.081l2.389,0.47 c0.114,0.022,0.229,0.033,0.343,0.033c0.601,0,1.172-0.306,1.501-0.828l1.298-2.06c0.772-1.224,2.091-1.955,3.531-1.955 c0.689,0,1.343,0.162,1.947,0.482l2.224,1.18c0.262,0.139,0.548,0.207,0.831,0.207c0.437,0,0.87-0.161,1.205-0.472l1.848-1.709 c0.773-0.714,1.777-1.108,2.829-1.108c1.599,0,3.078,0.934,3.768,2.381l1.357,2.846c0.302,0.632,0.934,1.011,1.602,1.011 c0.19,0,0.382-0.031,0.569-0.094l2.986-1.013c0.433-0.147,0.883-0.221,1.339-0.221c2.299,0,4.17,1.871,4.17,4.17 C62.605,27.954,62.282,28.861,61.671,29.612z M76.357,68.448c0,0.873-1.093,1.847-2.662,1.847h-7.808V46.807h7.808 c1.569,0,2.662,0.974,2.662,1.847V68.448L76.357,68.448z"/><metadata xmlns:d="https://loading.io/stock/">
<d:name>pub</d:name>
<d:tags>drink,beer,bar,vodka,wine,bottle,pub,map</d:tags>
<d:license>cc0</d:license>
<d:slug>690pwp</d:slug>
</metadata></svg>